<?xml version="1.0" encoding="us-ascii" standalone="no"?><svg xmlns="http://www.w3.org/2000/svg" xmlns:xlink="http://www.w3.org/1999/xlink" contentStyleType="text/css" height="514px" preserveAspectRatio="none" style="width:666px;height:514px;background:#FFFFFF;" version="1.1" viewBox="0 0 666 514" width="666px" zoomAndPan="magnify"><defs/><g><!--cluster System--><g id="cluster_System"><rect fill="none" height="501" rx="2.5" ry="2.5" style="stroke:#181818;stroke-width:1.0;" width="541" x="119" y="7"/><text fill="#000000" font-family="sans-serif" font-size="14" font-weight="bold" lengthAdjust="spacing" textLength="50" x="364.5" y="23.5332">System</text></g><g id="elem_UC1"><ellipse cx="212.1203" cy="251.8241" fill="#F1F1F1" rx="77.1203" ry="17.8241" style="stroke:#181818;stroke-width:0.5;"/><text fill="#000000" font-family="sans-serif" font-size="14" lengthAdjust="spacing" textLength="107" x="156.2783" y="256.1856">Voir les analyses</text></g><g id="elem_UC2"><ellipse cx="527.7192" cy="393.9438" fill="#F1F1F1" rx="112.7192" ry="24.9438" style="stroke:#181818;stroke-width:0.5;"/><text fill="#000000" font-family="sans-serif" font-size="14" lengthAdjust="spacing" textLength="189" x="433.2192" y="397.6724">Voir participations compl&#233;t&#233;es</text></g><g id="elem_UC3"><ellipse cx="527.4202" cy="314.784" fill="#F1F1F1" rx="81.9202" ry="18.784" style="stroke:#181818;stroke-width:0.5;"/><text fill="#000000" font-family="sans-serif" font-size="14" lengthAdjust="spacing" textLength="119" x="467.7512" y="318.5629">Voir note moyenne</text></g><g id="elem_UC4"><ellipse cx="527.3903" cy="236.0781" fill="#F1F1F1" rx="110.8903" ry="24.5781" style="stroke:#181818;stroke-width:0.5;"/><text fill="#000000" font-family="sans-serif" font-size="14" lengthAdjust="spacing" textLength="185" x="434.8903" y="239.8066">Voir taux de inscrites absents</text></g><g id="elem_UC5"><ellipse cx="527.6395" cy="153.1279" fill="#F1F1F1" rx="103.6395" ry="23.1279" style="stroke:#181818;stroke-width:0.5;"/><text fill="#000000" font-family="sans-serif" font-size="14" lengthAdjust="spacing" textLength="169" x="443.1395" y="156.8564">Voir derniers participations</text></g><g id="elem_UC6"><ellipse cx="527.3945" cy="69.1789" fill="#F1F1F1" rx="116.3945" ry="25.6789" style="stroke:#181818;stroke-width:0.5;"/><text fill="#000000" font-family="sans-serif" font-size="14" lengthAdjust="spacing" textLength="197" x="428.8945" y="72.9074">Voir note noyenne par branche</text></g><g id="elem_UC7"><ellipse cx="211.981" cy="326.7962" fill="#F1F1F1" rx="74.481" ry="17.2962" style="stroke:#181818;stroke-width:0.5;"/><text fill="#000000" font-family="sans-serif" font-size="14" lengthAdjust="spacing" textLength="100" x="158.981" y="331.3128">CRUD Entretien</text></g><g id="elem_UC8"><ellipse cx="212.1002" cy="397.02" fill="#F1F1F1" rx="75.6002" ry="17.52" style="stroke:#181818;stroke-width:0.5;"/><text fill="#000000" font-family="sans-serif" font-size="14" lengthAdjust="spacing" textLength="103" x="157.6002" y="401.5366">CRUD Branches</text></g><g id="elem_UC9"><ellipse cx="527.2827" cy="472.9565" fill="#F1F1F1" rx="80.2827" ry="18.4565" style="stroke:#181818;stroke-width:0.5;"/><text fill="#000000" font-family="sans-serif" font-size="14" lengthAdjust="spacing" textLength="115" x="468.9192" y="476.9341">CRUD Questiones</text></g><g id="elem_UC10"><ellipse cx="211.7688" cy="466.1538" fill="#F1F1F1" rx="68.7688" ry="16.1538" style="stroke:#181818;stroke-width:0.5;"/><text fill="#000000" font-family="sans-serif" font-size="14" lengthAdjust="spacing" textLength="84" x="166.7688" y="470.6704">participations</text></g><!--entity fr--><g id="elem_fr"><ellipse cx="39" cy="339.5" fill="#F1F1F1" rx="8" ry="8" style="stroke:#181818;stroke-width:0.5;"/><path d="M39,347.5 L39,374.5 M26,355.5 L52,355.5 M39,374.5 L26,389.5 M39,374.5 L52,389.5 " fill="none" style="stroke:#181818;stroke-width:0.5;"/><text fill="#000000" font-family="sans-serif" font-size="14" lengthAdjust="spacing" textLength="66" x="6" y="405.5332">Formateur</text></g><!--link fr to UC1--><g id="link_fr_UC1"><path d="M69.51,330.84 C81.26,317.19 95.65,302.65 111,292 C126.83,281.02 146.1,272.4 163.5,266.02 " fill="none" id="fr-UC1" style="stroke:#181818;stroke-width:1.0;"/></g><!--reverse link UC1 to UC2--><g id="link_UC1_UC2"><path d="M250.9148,270.9559 C264.5148,277.9559 275.03,283.7 289,292 C302.78,300.19 304.89,304.4 319,312 C358.09,333.08 369.74,334.58 411,351 C429.39,358.32 449.57,365.96 467.84,372.74 " fill="none" id="UC1-backto-UC2" style="stroke:#181818;stroke-width:1.0;stroke-dasharray:7.0,7.0;"/><polygon fill="#181818" points="245.58,268.21,251.7516,275.8853,250.0257,270.4982,255.4128,268.7722,245.58,268.21" style="stroke:#181818;stroke-width:1.0;"/><text fill="#000000" font-family="sans-serif" font-size="13" lengthAdjust="spacing" textLength="60" x="320" y="308.4951">&#171;extends&#187;</text></g><!--reverse link UC1 to UC3--><g id="link_UC1_UC3"><path d="M276.7525,264.8116 C331.8625,275.8816 408.65,291.32 464.95,302.63 " fill="none" id="UC1-backto-UC3" style="stroke:#181818;stroke-width:1.0;stroke-dasharray:7.0,7.0;"/><polygon fill="#181818" points="270.87,263.63,278.906,269.3241,275.7721,264.6147,280.4815,261.4808,270.87,263.63" style="stroke:#181818;stroke-width:1.0;"/><text fill="#000000" font-family="sans-serif" font-size="13" lengthAdjust="spacing" textLength="60" x="320" y="271.4951">&#171;extends&#187;</text></g><!--reverse link UC1 to UC4--><g id="link_UC1_UC4"><path d="M293.2922,247.9042 C332.6722,245.8942 375.77,243.69 419.21,241.48 " fill="none" id="UC1-backto-UC4" style="stroke:#181818;stroke-width:1.0;stroke-dasharray:7.0,7.0;"/><polygon fill="#181818" points="287.3,248.21,296.4922,251.746,292.2935,247.9551,296.0844,243.7564,287.3,248.21" style="stroke:#181818;stroke-width:1.0;"/><text fill="#000000" font-family="sans-serif" font-size="13" lengthAdjust="spacing" textLength="60" x="320" y="240.4951">&#171;extends&#187;</text></g><!--reverse link UC1 to UC5--><g id="link_UC1_UC5"><path d="M263.8221,235.6237 C282.6421,229.5737 299.01,224.34 319,218 C368.66,202.26 425.08,184.6 466.54,171.67 " fill="none" id="UC1-backto-UC5" style="stroke:#181818;stroke-width:1.0;stroke-dasharray:7.0,7.0;"/><polygon fill="#181818" points="258.11,237.46,267.9023,238.5137,262.8701,235.9298,265.454,230.8976,258.11,237.46" style="stroke:#181818;stroke-width:1.0;"/><text fill="#000000" font-family="sans-serif" font-size="13" lengthAdjust="spacing" textLength="60" x="320" y="197.4951">&#171;extends&#187;</text></g><!--reverse link UC1 to UC6--><g id="link_UC1_UC6"><path d="M238.059,230.8106 C272.689,202.1006 341.3,148.15 411,112 C426.86,103.77 444.66,96.34 461.45,90.06 " fill="none" id="UC1-backto-UC6" style="stroke:#181818;stroke-width:1.0;stroke-dasharray:7.0,7.0;"/><polygon fill="#181818" points="233.44,234.64,242.9215,231.9752,237.2892,231.4488,237.8156,225.8165,233.44,234.64" style="stroke:#181818;stroke-width:1.0;"/><text fill="#000000" font-family="sans-serif" font-size="13" lengthAdjust="spacing" textLength="60" x="320" y="128.4951">&#171;extends&#187;</text></g><!--link fr to UC7--><g id="link_fr_UC7"><path d="M72.16,361.91 C97.03,355.66 131.91,346.89 160.49,339.7 " fill="none" id="fr-UC7" style="stroke:#181818;stroke-width:1.0;"/></g><!--link fr to UC8--><g id="link_fr_UC8"><path d="M72.16,375.08 C93.84,378.5 123.12,383.12 149.2,387.24 " fill="none" id="fr-UC8" style="stroke:#181818;stroke-width:1.0;"/></g><!--reverse link UC8 to UC9--><g id="link_UC8_UC9"><path d="M250.1335,415.5261 C270.8035,425.3061 293.22,434.73 319,442 C362.29,454.21 412.11,461.85 452.08,466.5 " fill="none" id="UC8-backto-UC9" style="stroke:#181818;stroke-width:1.0;stroke-dasharray:7.0,7.0;"/><polygon fill="#181818" points="244.71,412.96,251.1346,420.4249,249.2296,415.0985,254.5561,413.1935,244.71,412.96" style="stroke:#181818;stroke-width:1.0;"/><text fill="#000000" font-family="sans-serif" font-size="13" lengthAdjust="spacing" textLength="60" x="320" y="438.4951">&#171;extends&#187;</text></g><!--link fr to UC10--><g id="link_fr_UC10"><path d="M72.23,402.87 C83.72,413.25 97.25,424.07 111,432 C127.52,441.52 147.13,448.92 164.58,454.35 " fill="none" id="fr-UC10" style="stroke:#181818;stroke-width:1.0;"/></g><!--SRC=[TP7FQi9048VlUOeXTqNhloZ1GsrxRukzhvk9BYIpCZC1fVI1V0vVh4OJ2SOS5XP-ts_cOpV3L44ziDlk51B7QDLv2enLpn1-UCwDOi4X686KWp8tjCqGle-YcCDl0508MYC8uOzt31aA63BPKL2kjVLgs8BsXjLPjpVbDW7hytrsFkdvTE-yj3ha5I7tHoJ22Xgr83N50H84HsBPQUco4IIjnuvRZGIP7B8yE5NyvBa6tJJA3cpOaDtLIjDcOVMrVeDtKaPrI1KnQn6ljmdrpgW5V1OefTKTcJUHf-B3GV0Nf0oztlK3BWVYVhzyM5X07ED1aH9PBXl9g3CPToQJpcJwaDGki_ijkj1HHSyxwE7W7m00]--></g></svg>