<?xml version="1.0" encoding="us-ascii" standalone="no"?><svg xmlns="http://www.w3.org/2000/svg" xmlns:xlink="http://www.w3.org/1999/xlink" contentStyleType="text/css" height="338px" preserveAspectRatio="none" style="width:777px;height:338px;background:#FFFFFF;" version="1.1" viewBox="0 0 777 338" width="777px" zoomAndPan="magnify"><defs/><g><!--cluster EntretienInscription--><g id="cluster_EntretienInscription"><rect fill="none" height="325" rx="2.5" ry="2.5" style="stroke:#181818;stroke-width:1.0;" width="541" x="230" y="7"/><text fill="#000000" font-family="sans-serif" font-size="14" font-weight="bold" lengthAdjust="spacing" textLength="140" x="430.5" y="23.5332">EntretienInscription</text></g><g id="elem_UC1"><ellipse cx="359.1203" cy="145.8241" fill="#F1F1F1" rx="77.1203" ry="17.8241" style="stroke:#181818;stroke-width:0.5;"/><text fill="#000000" font-family="sans-serif" font-size="14" lengthAdjust="spacing" textLength="107" x="303.2783" y="150.1856">Voir les analyses</text></g><g id="elem_UC2"><ellipse cx="359.1774" cy="68.0355" fill="#F1F1F1" rx="113.1774" ry="25.0355" style="stroke:#181818;stroke-width:0.5;"/><text fill="#000000" font-family="sans-serif" font-size="14" lengthAdjust="spacing" textLength="190" x="264.1774" y="71.764">CRUD Mod&#232;les des entretiens</text></g><g id="elem_UC3"><ellipse cx="359.2412" cy="292.9482" fill="#F1F1F1" rx="102.7412" ry="22.9482" style="stroke:#181818;stroke-width:0.5;"/><text fill="#000000" font-family="sans-serif" font-size="14" lengthAdjust="spacing" textLength="167" x="275.7412" y="296.6768">CRUD Type des questions</text></g><g id="elem_UC4"><ellipse cx="674.2827" cy="282.9565" fill="#F1F1F1" rx="80.2827" ry="18.4565" style="stroke:#181818;stroke-width:0.5;"/><text fill="#000000" font-family="sans-serif" font-size="14" lengthAdjust="spacing" textLength="115" x="615.9192" y="286.9341">CRUD Questiones</text></g><g id="elem_UC5"><ellipse cx="359.1203" cy="216.8241" fill="#F1F1F1" rx="77.1203" ry="17.8241" style="stroke:#181818;stroke-width:0.5;"/><text fill="#000000" font-family="sans-serif" font-size="14" lengthAdjust="spacing" textLength="107" x="303.2783" y="221.1856">CRUD Entretiens</text></g><g id="elem_UC6"><ellipse cx="674.396" cy="210.9792" fill="#F1F1F1" rx="77.896" ry="17.9792" style="stroke:#181818;stroke-width:0.5;"/><text fill="#000000" font-family="sans-serif" font-size="14" lengthAdjust="spacing" textLength="109" x="617.9355" y="215.2466">Evaluer un inscrit</text></g><!--entity fr--><g id="elem_fr"><ellipse cx="94.5" cy="91.5" fill="#F1F1F1" rx="8" ry="8" style="stroke:#181818;stroke-width:0.5;"/><path d="M94.5,99.5 L94.5,126.5 M81.5,107.5 L107.5,107.5 M94.5,126.5 L81.5,141.5 M94.5,126.5 L107.5,141.5 " fill="none" style="stroke:#181818;stroke-width:0.5;"/><text fill="#000000" font-family="sans-serif" font-size="14" lengthAdjust="spacing" textLength="66" x="61.5" y="157.5332">Formateur</text></g><!--entity rs--><g id="elem_rs"><ellipse cx="94.5" cy="209.5" fill="#F1F1F1" rx="8" ry="8" style="stroke:#181818;stroke-width:0.5;"/><path d="M94.5,217.5 L94.5,244.5 M81.5,225.5 L107.5,225.5 M94.5,244.5 L81.5,259.5 M94.5,244.5 L107.5,259.5 " fill="none" style="stroke:#181818;stroke-width:0.5;"/><text fill="#000000" font-family="sans-serif" font-size="14" lengthAdjust="spacing" textLength="177" x="6" y="275.5332">Responsable des Stagiaires</text></g><!--link fr to UC1--><g id="link_fr_UC1"><path d="M127.69,124.94 C167.12,128.55 235.06,134.76 286.96,139.51 " fill="none" id="fr-UC1" style="stroke:#181818;stroke-width:1.0;"/></g><!--link fr to UC2--><g id="link_fr_UC2"><path d="M127.69,115.38 C164.31,107.84 225.53,95.25 275.65,84.94 " fill="none" id="fr-UC2" style="stroke:#181818;stroke-width:1.0;"/></g><!--link fr to UC3--><g id="link_fr_UC3"><path d="M127.71,139.61 C145.51,150.46 167.17,165.6 183,183 C206.71,209.06 194.49,230 222,252 C237.7,264.55 257.18,273.27 276.45,279.32 " fill="none" id="fr-UC3" style="stroke:#181818;stroke-width:1.0;"/></g><!--link fr to UC5--><g id="link_fr_UC5"><path d="M127.59,138.91 C152.77,151.69 188.96,169.03 222,181 C247.95,190.4 277.49,198.52 302.39,204.65 " fill="none" id="fr-UC5" style="stroke:#181818;stroke-width:1.0;"/></g><!--link rs to UC1--><g id="link_rs_UC1"><path d="M173.51,200.89 C189.34,193.73 206.03,186.72 222,181 C247.59,171.83 276.69,164.01 301.38,158.1 " fill="none" id="rs-UC1" style="stroke:#181818;stroke-width:1.0;"/></g><!--link rs to UC2--><g id="link_rs_UC2"><path d="M158.08,200.8 C166.98,193.81 175.61,186.13 183,178 C206.43,152.21 194.8,131.77 222,110 C236.47,98.42 254.14,90.02 271.88,83.93 " fill="none" id="rs-UC2" style="stroke:#181818;stroke-width:1.0;"/></g><!--link rs to UC3--><g id="link_rs_UC3"><path d="M183.27,257.72 C215.32,264.19 251.26,271.45 282.18,277.69 " fill="none" id="rs-UC3" style="stroke:#181818;stroke-width:1.0;"/></g><!--link rs to UC5--><g id="link_rs_UC5"><path d="M183.27,232.31 C216.81,229.37 254.61,226.06 286.46,223.27 " fill="none" id="rs-UC5" style="stroke:#181818;stroke-width:1.0;"/></g><!--reverse link UC3 to UC4--><g id="link_UC3_UC4"><path d="M466.917,289.589 C510.237,288.209 554.1,286.81 594.64,285.52 " fill="none" id="UC3-backto-UC4" style="stroke:#181818;stroke-width:1.0;stroke-dasharray:7.0,7.0;"/><polygon fill="#181818" points="460.92,289.78,470.0428,293.4914,465.9175,289.6208,469.7881,285.4955,460.92,289.78" style="stroke:#181818;stroke-width:1.0;"/><text fill="#000000" font-family="sans-serif" font-size="13" lengthAdjust="spacing" textLength="60" x="503" y="282.4951">&#171;extends&#187;</text></g><!--reverse link UC5 to UC6--><g id="link_UC5_UC6"><path d="M441.8889,215.4343 C490.6389,214.4943 547.75,213.41 596.68,212.47 " fill="none" id="UC5-backto-UC6" style="stroke:#181818;stroke-width:1.0;stroke-dasharray:7.0,7.0;"/><polygon fill="#181818" points="435.89,215.55,444.9654,219.3758,440.8891,215.4536,444.8112,211.3772,435.89,215.55" style="stroke:#181818;stroke-width:1.0;"/><text fill="#000000" font-family="sans-serif" font-size="13" lengthAdjust="spacing" textLength="60" x="503" y="210.4951">&#171;extends&#187;</text></g><!--SRC=[PP11JiCm44NtFiKe-rOY8LsWg9isI2nOK2Zx8Pa4Iy4ECmwYGjo7Ut0nx117XUo-_P__dt57ZGDdWNNxxA3MJ9NJrYY5bRCCoRNb5tGqS08eq72yFv3qrWW-TGGr2TmxR3NwvpA2B4g5A3Ij1qhZc9mcSsEaOjs71lXG08DGXKAGF5hDqFaSDDYTP4evxYxEeTtXk8TRMtz_1JAqKWoEVBhW7qxzxuIl0qaeZcYsGEycOcw_N23b_yBy72dVi1k8OJ2WnqtTH6tKfr8DmserxXHLEgjiLhd_E8bWLEciibbvq1-XMA_3f705HK7lZamjswrtyidP_7L-0000]--></g></svg>