<?xml version="1.0" encoding="us-ascii" standalone="no"?><svg xmlns="http://www.w3.org/2000/svg" xmlns:xlink="http://www.w3.org/1999/xlink" contentStyleType="text/css" height="441px" preserveAspectRatio="none" style="width:777px;height:441px;background:#FFFFFF;" version="1.1" viewBox="0 0 777 441" width="777px" zoomAndPan="magnify"><defs/><g><!--cluster EntretienInscription--><g id="cluster_EntretienInscription"><rect fill="none" height="428" rx="2.5" ry="2.5" style="stroke:#181818;stroke-width:1.0;" width="541" x="230" y="7"/><text fill="#000000" font-family="sans-serif" font-size="14" font-weight="bold" lengthAdjust="spacing" textLength="140" x="430.5" y="23.5332">EntretienInscription</text></g><g id="elem_UC1"><ellipse cx="323.1203" cy="235.8241" fill="#F1F1F1" rx="77.1203" ry="17.8241" style="stroke:#181818;stroke-width:0.5;"/><text fill="#000000" font-family="sans-serif" font-size="14" lengthAdjust="spacing" textLength="107" x="267.2783" y="240.1856">Voir les analyses</text></g><g id="elem_UC2"><ellipse cx="638.7192" cy="393.9438" fill="#F1F1F1" rx="112.7192" ry="24.9438" style="stroke:#181818;stroke-width:0.5;"/><text fill="#000000" font-family="sans-serif" font-size="14" lengthAdjust="spacing" textLength="189" x="544.2192" y="397.6724">Voir participations compl&#233;t&#233;es</text></g><g id="elem_UC3"><ellipse cx="638.4202" cy="314.784" fill="#F1F1F1" rx="81.9202" ry="18.784" style="stroke:#181818;stroke-width:0.5;"/><text fill="#000000" font-family="sans-serif" font-size="14" lengthAdjust="spacing" textLength="119" x="578.7512" y="318.5629">Voir note moyenne</text></g><g id="elem_UC4"><ellipse cx="638.3903" cy="236.0781" fill="#F1F1F1" rx="110.8903" ry="24.5781" style="stroke:#181818;stroke-width:0.5;"/><text fill="#000000" font-family="sans-serif" font-size="14" lengthAdjust="spacing" textLength="185" x="545.8903" y="239.8066">Voir taux de inscrites absents</text></g><g id="elem_UC5"><ellipse cx="638.6395" cy="153.1279" fill="#F1F1F1" rx="103.6395" ry="23.1279" style="stroke:#181818;stroke-width:0.5;"/><text fill="#000000" font-family="sans-serif" font-size="14" lengthAdjust="spacing" textLength="169" x="554.1395" y="156.8564">Voir derniers participations</text></g><g id="elem_UC6"><ellipse cx="638.3945" cy="69.1789" fill="#F1F1F1" rx="116.3945" ry="25.6789" style="stroke:#181818;stroke-width:0.5;"/><text fill="#000000" font-family="sans-serif" font-size="14" lengthAdjust="spacing" textLength="197" x="539.8945" y="72.9074">Voir note noyenne par branche</text></g><!--entity fr--><g id="elem_fr"><ellipse cx="94.5" cy="149.5" fill="#F1F1F1" rx="8" ry="8" style="stroke:#181818;stroke-width:0.5;"/><path d="M94.5,157.5 L94.5,184.5 M81.5,165.5 L107.5,165.5 M94.5,184.5 L81.5,199.5 M94.5,184.5 L107.5,199.5 " fill="none" style="stroke:#181818;stroke-width:0.5;"/><text fill="#000000" font-family="sans-serif" font-size="14" lengthAdjust="spacing" textLength="66" x="61.5" y="215.5332">Formateur</text></g><!--entity rs--><g id="elem_rs"><ellipse cx="94.5" cy="262.5" fill="#F1F1F1" rx="8" ry="8" style="stroke:#181818;stroke-width:0.5;"/><path d="M94.5,270.5 L94.5,297.5 M81.5,278.5 L107.5,278.5 M94.5,297.5 L81.5,312.5 M94.5,297.5 L107.5,312.5 " fill="none" style="stroke:#181818;stroke-width:0.5;"/><text fill="#000000" font-family="sans-serif" font-size="14" lengthAdjust="spacing" textLength="177" x="6" y="328.5332">Responsable des Stagiaires</text></g><!--link fr to UC1--><g id="link_fr_UC1"><path d="M127.95,188.02 C164.89,197.16 225.77,212.21 269.49,223.02 " fill="none" id="fr-UC1" style="stroke:#181818;stroke-width:1.0;"/></g><!--link rs to UC1--><g id="link_rs_UC1"><path d="M183.07,270.96 C212.45,263.57 244.26,255.56 270.02,249.08 " fill="none" id="rs-UC1" style="stroke:#181818;stroke-width:1.0;"/></g><!--reverse link UC1 to UC2--><g id="link_UC1_UC2"><path d="M354.2558,256.538 C375.4658,270.738 401.75,287.77 430,304 C469.82,326.87 479.97,332.51 522,351 C539.63,358.75 559.14,366.37 577.02,372.99 " fill="none" id="UC1-backto-UC2" style="stroke:#181818;stroke-width:1.0;stroke-dasharray:7.0,7.0;"/><polygon fill="#181818" points="349.27,253.2,354.5234,261.5308,353.4248,255.9816,358.974,254.8831,349.27,253.2" style="stroke:#181818;stroke-width:1.0;"/><text fill="#000000" font-family="sans-serif" font-size="13" lengthAdjust="spacing" textLength="60" x="431" y="300.4951">&#171;extends&#187;</text></g><!--reverse link UC1 to UC3--><g id="link_UC1_UC3"><path d="M381.9381,250.5963 C438.9581,264.9663 524.16,286.44 582.35,301.1 " fill="none" id="UC1-backto-UC3" style="stroke:#181818;stroke-width:1.0;stroke-dasharray:7.0,7.0;"/><polygon fill="#181818" points="376.12,249.13,383.8696,255.2081,380.9684,250.3519,385.8246,247.4507,376.12,249.13" style="stroke:#181818;stroke-width:1.0;"/><text fill="#000000" font-family="sans-serif" font-size="13" lengthAdjust="spacing" textLength="60" x="431" y="260.4951">&#171;extends&#187;</text></g><!--reverse link UC1 to UC4--><g id="link_UC1_UC4"><path d="M406.29,236 C444.44,236 485.32,236 527.3,236 " fill="none" id="UC1-backto-UC4" style="stroke:#181818;stroke-width:1.0;stroke-dasharray:7.0,7.0;"/><polygon fill="#181818" points="400.29,236,409.29,240,405.29,236,409.29,232,400.29,236" style="stroke:#181818;stroke-width:1.0;"/><text fill="#000000" font-family="sans-serif" font-size="13" lengthAdjust="spacing" textLength="60" x="431" y="232.4951">&#171;extends&#187;</text></g><!--reverse link UC1 to UC5--><g id="link_UC1_UC5"><path d="M380.5203,221.0348 C433.9803,206.8848 512.62,186.06 571.3,170.53 " fill="none" id="UC1-backto-UC5" style="stroke:#181818;stroke-width:1.0;stroke-dasharray:7.0,7.0;"/><polygon fill="#181818" points="374.72,222.57,384.4439,224.134,379.5536,221.2906,382.3969,216.4003,374.72,222.57" style="stroke:#181818;stroke-width:1.0;"/><text fill="#000000" font-family="sans-serif" font-size="13" lengthAdjust="spacing" textLength="60" x="431" y="189.4951">&#171;extends&#187;</text></g><!--reverse link UC1 to UC6--><g id="link_UC1_UC6"><path d="M352.2709,215.4305 C388.3309,189.6505 455.45,143.95 522,112 C538.49,104.08 556.85,96.66 573.99,90.28 " fill="none" id="UC1-backto-UC6" style="stroke:#181818;stroke-width:1.0;stroke-dasharray:7.0,7.0;"/><polygon fill="#181818" points="347.39,218.92,357.0377,216.9397,351.4574,216.0121,352.3851,210.4318,347.39,218.92" style="stroke:#181818;stroke-width:1.0;"/><text fill="#000000" font-family="sans-serif" font-size="13" lengthAdjust="spacing" textLength="60" x="431" y="126.4951">&#171;extends&#187;</text></g><!--SRC=[TO_DIiH048JlynHDxhkW-tEGi1THyAhelJFfP0UIdj3TWLt41zhds1SpYOceCPUXcQhwgAgeCB084igZGHw4l8N83hr5WUGnIer6hII02eLC_y-aJMJ5h2B8IU75i0pOfNKmYheUX5ns-WERa0NY9rOleUdvyEu0MYMFIf2ynI1GTHXahCuwGbxlRsQc1iM23mts40KVwwQwNknw-SxSpZ8SZQ2EPsAcqRIPcGpRKxS4mj3H-YwP4jk4tSuIEGa74ltJQVJl_g_1NpNw36I2x8zJfRtxSAuGMAs6uHrtl5ptGBfUzzlW3jAKJaQSw-7mGzaiAjj5PRUex7yhdm00]--></g></svg>