<?xml version="1.0" encoding="us-ascii" standalone="no"?><svg xmlns="http://www.w3.org/2000/svg" xmlns:xlink="http://www.w3.org/1999/xlink" contentStyleType="text/css" height="166px" preserveAspectRatio="none" style="width:574px;height:166px;background:#FFFFFF;" version="1.1" viewBox="0 0 574 166" width="574px" zoomAndPan="magnify"><defs/><g><!--cluster System--><g id="cluster_System"><rect fill="none" height="153" rx="2.5" ry="2.5" style="stroke:#181818;stroke-width:1.0;" width="449" x="119" y="7"/><text fill="#000000" font-family="sans-serif" font-size="14" font-weight="bold" lengthAdjust="spacing" textLength="50" x="318.5" y="23.5332">System</text></g><g id="elem_UC1"><ellipse cx="208.0109" cy="60.0022" fill="#F1F1F1" rx="73.0109" ry="17.0022" style="stroke:#181818;stroke-width:0.5;"/><text fill="#000000" font-family="sans-serif" font-size="14" lengthAdjust="spacing" textLength="96" x="157.0109" y="64.5188">CRUD Branche</text></g><g id="elem_UC2"><ellipse cx="477.481" cy="60.7962" fill="#F1F1F1" rx="74.481" ry="17.2962" style="stroke:#181818;stroke-width:0.5;"/><text fill="#000000" font-family="sans-serif" font-size="14" lengthAdjust="spacing" textLength="100" x="424.481" y="65.3128">CRUD Question</text></g><g id="elem_UC3"><ellipse cx="208.0419" cy="128.0159" fill="#F1F1F1" rx="52.0419" ry="15.5159" style="stroke:#181818;stroke-width:0.5;"/><text fill="#000000" font-family="sans-serif" font-size="14" lengthAdjust="spacing" textLength="57" x="176.5419" y="132.5325">Entretien</text></g><!--entity fr--><g id="elem_fr"><ellipse cx="39" cy="64.5" fill="#F1F1F1" rx="8" ry="8" style="stroke:#181818;stroke-width:0.5;"/><path d="M39,72.5 L39,99.5 M26,80.5 L52,80.5 M39,99.5 L26,114.5 M39,99.5 L52,114.5 " fill="none" style="stroke:#181818;stroke-width:0.5;"/><text fill="#000000" font-family="sans-serif" font-size="14" lengthAdjust="spacing" textLength="66" x="6" y="130.5332">Formateur</text></g><!--link fr to UC1--><g id="link_fr_UC1"><path d="M72.2,88.25 C95.14,83.44 126.51,76.87 153.21,71.27 " fill="none" id="fr-UC1" style="stroke:#181818;stroke-width:1.0;"/></g><!--reverse link UC1 to UC2--><g id="link_UC1_UC2"><path d="M287.04,60.2923 C324.79,60.4323 364.96,60.58 402.94,60.72 " fill="none" id="UC1-backto-UC2" style="stroke:#181818;stroke-width:1.0;stroke-dasharray:7.0,7.0;"/><polygon fill="#181818" points="281.04,60.27,290.0251,64.3033,286.04,60.2885,290.0548,56.3034,281.04,60.27" style="stroke:#181818;stroke-width:1.0;"/><text fill="#000000" font-family="sans-serif" font-size="13" lengthAdjust="spacing" textLength="60" x="312" y="57.4951">&#171;extends&#187;</text></g><!--link fr to UC3--><g id="link_fr_UC3"><path d="M72.2,101.36 C98.36,106.53 135.49,113.87 164.16,119.53 " fill="none" id="fr-UC3" style="stroke:#181818;stroke-width:1.0;"/></g><!--SRC=[POr12i8m54JtESNGVGlQdPGkh7QlqWE4zASDj0dy_88YtbrJL0GNitflPYQo0WbWDuo2tZ4PSS4hRIGmiZRmh8KMpg0ZBAl4jHycmkKMXMRS5R14CZeIikRS7R1dxSr8QwDhDd_yj51C7szX-oiSlJ29emyirKDPHfwlIw-WAefKmWvLHLSXtyUw_Zhb4m00]--></g></svg>