<?xml version="1.0" encoding="us-ascii" standalone="no"?><svg xmlns="http://www.w3.org/2000/svg" xmlns:xlink="http://www.w3.org/1999/xlink" contentStyleType="text/css" height="210px" preserveAspectRatio="none" style="width:777px;height:210px;background:#FFFFFF;" version="1.1" viewBox="0 0 777 210" width="777px" zoomAndPan="magnify"><defs/><g><!--cluster EntretienInscription--><g id="cluster_EntretienInscription"><rect fill="none" height="183" rx="2.5" ry="2.5" style="stroke:#181818;stroke-width:1.0;" width="541" x="230" y="7"/><text fill="#000000" font-family="sans-serif" font-size="14" font-weight="bold" lengthAdjust="spacing" textLength="140" x="430.5" y="23.5332">EntretienInscription</text></g><g id="elem_UC1"><ellipse cx="359.1774" cy="68.0355" fill="#F1F1F1" rx="113.1774" ry="25.0355" style="stroke:#181818;stroke-width:0.5;"/><text fill="#000000" font-family="sans-serif" font-size="14" lengthAdjust="spacing" textLength="190" x="264.1774" y="71.764">CRUD Mod&#232;les des entretiens</text></g><g id="elem_UC2"><ellipse cx="359.2412" cy="150.9482" fill="#F1F1F1" rx="102.7412" ry="22.9482" style="stroke:#181818;stroke-width:0.5;"/><text fill="#000000" font-family="sans-serif" font-size="14" lengthAdjust="spacing" textLength="167" x="275.7412" y="154.6768">CRUD Type des questions</text></g><g id="elem_UC3"><ellipse cx="674.2827" cy="138.9565" fill="#F1F1F1" rx="80.2827" ry="18.4565" style="stroke:#181818;stroke-width:0.5;"/><text fill="#000000" font-family="sans-serif" font-size="14" lengthAdjust="spacing" textLength="115" x="615.9192" y="142.9341">CRUD Questiones</text></g><!--entity fr--><g id="elem_fr"><ellipse cx="94.5" cy="20.5" fill="#F1F1F1" rx="8" ry="8" style="stroke:#181818;stroke-width:0.5;"/><path d="M94.5,28.5 L94.5,55.5 M81.5,36.5 L107.5,36.5 M94.5,55.5 L81.5,70.5 M94.5,55.5 L107.5,70.5 " fill="none" style="stroke:#181818;stroke-width:0.5;"/><text fill="#000000" font-family="sans-serif" font-size="14" lengthAdjust="spacing" textLength="66" x="61.5" y="86.5332">Formateur</text></g><!--entity rs--><g id="elem_rs"><ellipse cx="94.5" cy="135.5" fill="#F1F1F1" rx="8" ry="8" style="stroke:#181818;stroke-width:0.5;"/><path d="M94.5,143.5 L94.5,170.5 M81.5,151.5 L107.5,151.5 M94.5,170.5 L81.5,185.5 M94.5,170.5 L107.5,185.5 " fill="none" style="stroke:#181818;stroke-width:0.5;"/><text fill="#000000" font-family="sans-serif" font-size="14" lengthAdjust="spacing" textLength="177" x="6" y="201.5332">Responsable des Stagiaires</text></g><!--link fr to UC1--><g id="link_fr_UC1"><path d="M127.69,53.08 C158.29,55.07 206.06,58.16 250.18,61.02 " fill="none" id="fr-UC1" style="stroke:#181818;stroke-width:1.0;"/></g><!--link fr to UC2--><g id="link_fr_UC2"><path d="M127.71,67.59 C152.95,80.21 189.17,97.47 222,110 C244.69,118.66 270.06,126.73 292.68,133.37 " fill="none" id="fr-UC2" style="stroke:#181818;stroke-width:1.0;"/></g><!--link rs to UC1--><g id="link_rs_UC1"><path d="M179.99,126.96 C193.91,121 208.28,115.14 222,110 C243.41,101.99 267.1,94.28 288.63,87.71 " fill="none" id="rs-UC1" style="stroke:#181818;stroke-width:1.0;"/></g><!--link rs to UC2--><g id="link_rs_UC2"><path d="M183.27,160.98 C207.72,159.59 234.43,158.06 259.45,156.63 " fill="none" id="rs-UC2" style="stroke:#181818;stroke-width:1.0;"/></g><!--reverse link UC2 to UC3--><g id="link_UC2_UC3"><path d="M466.4856,146.9213 C510.0056,145.2613 554.2,143.57 594.93,142.01 " fill="none" id="UC2-backto-UC3" style="stroke:#181818;stroke-width:1.0;stroke-dasharray:7.0,7.0;"/><polygon fill="#181818" points="460.49,147.15,469.6359,150.8041,465.4864,146.9594,469.331,142.8099,460.49,147.15" style="stroke:#181818;stroke-width:1.0;"/><text fill="#000000" font-family="sans-serif" font-size="13" lengthAdjust="spacing" textLength="60" x="503" y="140.4951">&#171;extends&#187;</text></g><!--SRC=[POqzRi9048NxFSMJUoC5EcJHG91IfE3l01jxR5OoksPcB84GzyazSh7i0blHZ4PlllTDJwr20zXrHqNZc6frmHjRQs0Kwy0dgpHo0IjeEUTRaY5uiJyzeI71JctdR6pB0sGnIMHz5- -VNfdKaV_oKhCRaXyt0un2jHL2iTmULlWEpTzl7rt9Hxdpz1sM7s_y_ZeyVvz7akJCwFGDtRm8oiZCt8rf6MNvKETjQWnB3lCMmpXGJIQfY3cgYYvAlf75uXy0]--></g></svg>