<?xml version="1.0" encoding="us-ascii" standalone="no"?><svg xmlns="http://www.w3.org/2000/svg" xmlns:xlink="http://www.w3.org/1999/xlink" contentStyleType="text/css" height="168px" preserveAspectRatio="none" style="width:574px;height:168px;background:#FFFFFF;" version="1.1" viewBox="0 0 574 168" width="574px" zoomAndPan="magnify"><defs/><g><!--cluster System--><g id="cluster_System"><rect fill="none" height="155" rx="2.5" ry="2.5" style="stroke:#181818;stroke-width:1.0;" width="449" x="119" y="7"/><text fill="#000000" font-family="sans-serif" font-size="14" font-weight="bold" lengthAdjust="spacing" textLength="50" x="318.5" y="23.5332">System</text></g><g id="elem_UC1"><ellipse cx="208.0677" cy="60.2135" fill="#F1F1F1" rx="71.5677" ry="16.7135" style="stroke:#181818;stroke-width:0.5;"/><text fill="#000000" font-family="sans-serif" font-size="14" lengthAdjust="spacing" textLength="92" x="159.0677" y="64.7301">Crud Entretien</text></g><g id="elem_UC2"><ellipse cx="208.0109" cy="129.0022" fill="#F1F1F1" rx="73.0109" ry="17.0022" style="stroke:#181818;stroke-width:0.5;"/><text fill="#000000" font-family="sans-serif" font-size="14" lengthAdjust="spacing" textLength="96" x="157.0109" y="133.5188">CRUD Branche</text></g><g id="elem_UC3"><ellipse cx="477.481" cy="110.7962" fill="#F1F1F1" rx="74.481" ry="17.2962" style="stroke:#181818;stroke-width:0.5;"/><text fill="#000000" font-family="sans-serif" font-size="14" lengthAdjust="spacing" textLength="100" x="424.481" y="115.3128">CRUD Question</text></g><!--entity fr--><g id="elem_fr"><ellipse cx="39" cy="64.5" fill="#F1F1F1" rx="8" ry="8" style="stroke:#181818;stroke-width:0.5;"/><path d="M39,72.5 L39,99.5 M26,80.5 L52,80.5 M39,99.5 L26,114.5 M39,99.5 L52,114.5 " fill="none" style="stroke:#181818;stroke-width:0.5;"/><text fill="#000000" font-family="sans-serif" font-size="14" lengthAdjust="spacing" textLength="66" x="6" y="130.5332">Formateur</text></g><!--link fr to UC1--><g id="link_fr_UC1"><path d="M72.2,88.25 C95.52,83.36 127.55,76.65 154.53,71 " fill="none" id="fr-UC1" style="stroke:#181818;stroke-width:1.0;"/></g><!--link fr to UC2--><g id="link_fr_UC2"><path d="M72.2,101.56 C94.95,106.19 125.99,112.51 152.55,117.91 " fill="none" id="fr-UC2" style="stroke:#181818;stroke-width:1.0;"/></g><!--reverse link UC2 to UC3--><g id="link_UC2_UC3"><path d="M284.2265,123.9379 C323.3865,121.3079 366.27,118.42 405.69,115.76 " fill="none" id="UC2-backto-UC3" style="stroke:#181818;stroke-width:1.0;stroke-dasharray:7.0,7.0;"/><polygon fill="#181818" points="278.24,124.34,287.4878,127.7279,283.2288,124.005,286.9517,119.7459,278.24,124.34" style="stroke:#181818;stroke-width:1.0;"/><text fill="#000000" font-family="sans-serif" font-size="13" lengthAdjust="spacing" textLength="60" x="312" y="115.4951">&#171;extends&#187;</text></g><!--SRC=[POx12i8m44Jl-OgXznQiDmazMErTfHyGqcqRQ1FOR40H_rrRwa4yB0oyDyDEr0iaWDqm2Zh7PCK5huoLmCYQmBCHIfp1HFIi5cxyC15kZoWquwc05CcQICXgJXtENfZ4aLyxRRtxCQxj2KSstewqyVAFNnB5vOjDsAkNwXbvlevzKwa-1rqKYu43jAQxaEzYLRq1]--></g></svg>