<?xml version="1.0" encoding="us-ascii" standalone="no"?><svg xmlns="http://www.w3.org/2000/svg" xmlns:xlink="http://www.w3.org/1999/xlink" contentStyleType="text/css" height="201px" preserveAspectRatio="none" style="width:419px;height:201px;background:#FFFFFF;" version="1.1" viewBox="0 0 419 201" width="419px" zoomAndPan="magnify"><defs/><g><!--cluster EntretienInscription--><g id="cluster_EntretienInscription"><rect fill="none" height="88" rx="2.5" ry="2.5" style="stroke:#181818;stroke-width:1.0;" width="186" x="227" y="47.5"/><text fill="#000000" font-family="sans-serif" font-size="14" font-weight="bold" lengthAdjust="spacing" textLength="140" x="250" y="64.0332">EntretienInscription</text></g><g id="elem_UC1"><ellipse cx="320.1203" cy="101.3241" fill="#F1F1F1" rx="77.1203" ry="17.8241" style="stroke:#181818;stroke-width:0.5;"/><text fill="#000000" font-family="sans-serif" font-size="14" lengthAdjust="spacing" textLength="107" x="264.2783" y="105.6856">CRUD Entretiens</text></g><!--entity fr--><g id="elem_fr"><ellipse cx="94.5" cy="14" fill="#F1F1F1" rx="8" ry="8" style="stroke:#181818;stroke-width:0.5;"/><path d="M94.5,22 L94.5,49 M81.5,30 L107.5,30 M94.5,49 L81.5,64 M94.5,49 L107.5,64 " fill="none" style="stroke:#181818;stroke-width:0.5;"/><text fill="#000000" font-family="sans-serif" font-size="14" lengthAdjust="spacing" textLength="66" x="61.5" y="80.0332">Formateur</text></g><!--entity rs--><g id="elem_rs"><ellipse cx="94.5" cy="127" fill="#F1F1F1" rx="8" ry="8" style="stroke:#181818;stroke-width:0.5;"/><path d="M94.5,135 L94.5,162 M81.5,143 L107.5,143 M94.5,162 L81.5,177 M94.5,162 L107.5,177 " fill="none" style="stroke:#181818;stroke-width:0.5;"/><text fill="#000000" font-family="sans-serif" font-size="14" lengthAdjust="spacing" textLength="177" x="6" y="193.0332">Responsable des Stagiaires</text></g><!--link fr to UC1--><g id="link_fr_UC1"><path d="M127.52,52.67 C163.97,61.96 224.04,77.28 267.18,88.29 " fill="none" id="fr-UC1" style="stroke:#181818;stroke-width:1.0;"/></g><!--link rs to UC1--><g id="link_rs_UC1"><path d="M183.19,135.53 C211.44,128.45 241.85,120.83 266.71,114.6 " fill="none" id="rs-UC1" style="stroke:#181818;stroke-width:1.0;"/></g><!--SRC=[HOmz3i8m38Ltd-AfUmVEK41YBUe1JEg4I2MfR7T2t9ssWDZUxpT9T7Y5vdHtZ5abUAw5E7XLDEUg3tPPj04RelxoNcoknVWs2KOnN9rJvlLj-r2DDX2NjFQduYgUfLoA1StpniUJWCKai0cQhX-E_za7CNG7UX55HTlkXjI-yWq0]--></g></svg>